<svg width="255" height="93" viewBox="0 0 255 93" fill="none" xmlns="http://www.w3.org/2000/svg">
<path d="M27.125 11.9634H17.1062L14 2.25092L10.8938 11.9634H0.875L8.96875 17.9572L5.90625 27.6259L14 21.6322L22.0938 27.6259L18.9875 17.9134L27.125 11.9634Z" fill="#FEBB41"/>
<path d="M57.125 11.9634H47.1062L44 2.25092L40.8938 11.9634H30.875L38.9688 17.9572L35.9062 27.6259L44 21.6322L52.0938 27.6259L48.9875 17.9134L57.125 11.9634Z" fill="#FEBB41"/>
<path d="M117.125 11.9634H107.106L104 2.25092L100.894 11.9634H90.875L98.9688 17.9572L95.9062 27.6259L104 21.6322L112.094 27.6259L108.988 17.9134L117.125 11.9634Z" fill="#FEBB41"/>
<path d="M87.125 11.9634H77.1062L74 2.25092L70.8938 11.9634H60.875L68.9688 17.9572L65.9062 27.6259L74 21.6322L82.0938 27.6259L78.9875 17.9134L87.125 11.9634Z" fill="#FEBB41"/>
<path d="M147.125 11.9634H137.106L134 2.25092L130.894 11.9634H120.875L128.969 17.9572L125.906 27.6259L134 21.6322L142.094 27.6259L138.988 17.9134L147.125 11.9634Z" fill="#FEBB41"/>
<path d="M14.936 48.2104H8.906V51.4144C9.182 51.0904 9.56 50.8324 10.04 50.6404C10.532 50.4364 11.072 50.3344 11.66 50.3344C12.536 50.3344 13.262 50.5264 13.838 50.9104C14.426 51.2824 14.858 51.7864 15.134 52.4224C15.422 53.0464 15.566 53.7424 15.566 54.5104C15.566 55.8664 15.182 56.9524 14.414 57.7684C13.658 58.5844 12.572 58.9924 11.156 58.9924C10.232 58.9924 9.428 58.8304 8.744 58.5064C8.06 58.1704 7.526 57.7084 7.142 57.1204C6.758 56.5204 6.548 55.8244 6.512 55.0324H8.978C9.074 55.5724 9.296 56.0044 9.644 56.3284C9.992 56.6404 10.454 56.7964 11.03 56.7964C11.726 56.7964 12.242 56.5864 12.578 56.1664C12.926 55.7344 13.1 55.1644 13.1 54.4564C13.1 53.7844 12.92 53.2624 12.56 52.8904C12.2 52.5184 11.69 52.3324 11.03 52.3324C10.55 52.3324 10.142 52.4404 9.806 52.6564C9.47 52.8604 9.224 53.1364 9.068 53.4844H6.602V45.9784H14.936V48.2104ZM24.9005 48.8404C26.1125 48.8404 27.0845 49.1464 27.8165 49.7584C28.5485 50.3704 29.0045 51.1864 29.1845 52.2064H26.8085C26.7125 51.7264 26.4965 51.3424 26.1605 51.0544C25.8245 50.7664 25.3865 50.6224 24.8465 50.6224C24.4145 50.6224 24.0785 50.7244 23.8385 50.9284C23.5985 51.1324 23.4785 51.4084 23.4785 51.7564C23.4785 52.0324 23.5745 52.2544 23.7665 52.4224C23.9585 52.5904 24.1985 52.7224 24.4865 52.8184C24.7745 52.9144 25.1885 53.0284 25.7285 53.1604C26.4845 53.3284 27.0965 53.5084 27.5645 53.7004C28.0445 53.8804 28.4525 54.1744 28.7885 54.5824C29.1365 54.9784 29.3105 55.5184 29.3105 56.2024C29.3105 57.0544 28.9745 57.7444 28.3025 58.2724C27.6425 58.8004 26.7485 59.0644 25.6205 59.0644C24.3245 59.0644 23.2865 58.7764 22.5065 58.2004C21.7265 57.6124 21.2525 56.7784 21.0845 55.6984H23.5145C23.5745 56.1904 23.7905 56.5804 24.1625 56.8684C24.5345 57.1444 25.0205 57.2824 25.6205 57.2824C26.0525 57.2824 26.3825 57.1804 26.6105 56.9764C26.8385 56.7604 26.9525 56.4844 26.9525 56.1484C26.9525 55.8604 26.8505 55.6264 26.6465 55.4464C26.4545 55.2664 26.2085 55.1284 25.9085 55.0324C25.6205 54.9364 25.2065 54.8224 24.6665 54.6904C23.9225 54.5224 23.3165 54.3544 22.8485 54.1864C22.3925 54.0064 21.9965 53.7244 21.6605 53.3404C21.3365 52.9564 21.1745 52.4284 21.1745 51.7564C21.1745 50.8924 21.5045 50.1904 22.1645 49.6504C22.8245 49.1104 23.7365 48.8404 24.9005 48.8404ZM36.5288 56.7604V58.9384H35.1968C34.0808 58.9384 33.2228 58.6684 32.6228 58.1284C32.0348 57.5884 31.7408 56.6884 31.7408 55.4284V51.1084H30.3548V48.9664H31.7408V46.5004H34.2788V48.9664H36.5108V51.1084H34.2788V55.4644C34.2788 55.9444 34.3748 56.2804 34.5668 56.4724C34.7588 56.6644 35.0828 56.7604 35.5388 56.7604H36.5288ZM42.2611 48.8404C43.1011 48.8404 43.8211 49.0384 44.4211 49.4344C45.0211 49.8304 45.4471 50.3644 45.6991 51.0364V48.9664H48.2191V58.9384H45.6991V56.8504C45.4471 57.5224 45.0211 58.0624 44.4211 58.4704C43.8211 58.8664 43.1011 59.0644 42.2611 59.0644C41.4211 59.0644 40.6651 58.8604 39.9931 58.4524C39.3211 58.0444 38.7931 57.4564 38.4091 56.6884C38.0371 55.9084 37.8511 54.9964 37.8511 53.9524C37.8511 52.9084 38.0371 52.0024 38.4091 51.2344C38.7931 50.4544 39.3211 49.8604 39.9931 49.4524C40.6651 49.0444 41.4211 48.8404 42.2611 48.8404ZM43.0531 51.0544C42.2611 51.0544 41.6251 51.3124 41.1451 51.8284C40.6651 52.3444 40.4251 53.0524 40.4251 53.9524C40.4251 54.8524 40.6651 55.5604 41.1451 56.0764C41.6251 56.5804 42.2611 56.8324 43.0531 56.8324C43.8211 56.8324 44.4511 56.5744 44.9431 56.0584C45.4471 55.5304 45.6991 54.8284 45.6991 53.9524C45.6991 53.0644 45.4471 52.3624 44.9431 51.8464C44.4511 51.3184 43.8211 51.0544 43.0531 51.0544ZM53.0572 50.8744C53.4292 50.2384 53.9212 49.7404 54.5332 49.3804C55.1452 49.0084 55.8292 48.8224 56.5852 48.8224V51.5404H55.8472C53.9872 51.5404 53.0572 52.4044 53.0572 54.1324V58.9384H50.5192V48.9664H53.0572V50.8744ZM64.4478 50.8744C64.8198 50.2384 65.3118 49.7404 65.9238 49.3804C66.5358 49.0084 67.2198 48.8224 67.9758 48.8224V51.5404H67.2378C65.3778 51.5404 64.4478 52.4044 64.4478 54.1324V58.9384H61.9098V48.9664H64.4478V50.8744ZM73.2865 48.8404C74.1265 48.8404 74.8465 49.0384 75.4465 49.4344C76.0465 49.8304 76.4725 50.3644 76.7245 51.0364V48.9664H79.2445V58.9384H76.7245V56.8504C76.4725 57.5224 76.0465 58.0624 75.4465 58.4704C74.8465 58.8664 74.1265 59.0644 73.2865 59.0644C72.4465 59.0644 71.6905 58.8604 71.0185 58.4524C70.3465 58.0444 69.8185 57.4564 69.4345 56.6884C69.0625 55.9084 68.8765 54.9964 68.8765 53.9524C68.8765 52.9084 69.0625 52.0024 69.4345 51.2344C69.8185 50.4544 70.3465 49.8604 71.0185 49.4524C71.6905 49.0444 72.4465 48.8404 73.2865 48.8404ZM74.0785 51.0544C73.2865 51.0544 72.6505 51.3124 72.1705 51.8284C71.6905 52.3444 71.4505 53.0524 71.4505 53.9524C71.4505 54.8524 71.6905 55.5604 72.1705 56.0764C72.6505 56.5804 73.2865 56.8324 74.0785 56.8324C74.8465 56.8324 75.4765 56.5744 75.9685 56.0584C76.4725 55.5304 76.7245 54.8284 76.7245 53.9524C76.7245 53.0644 76.4725 52.3624 75.9685 51.8464C75.4765 51.3184 74.8465 51.0544 74.0785 51.0544ZM86.8726 56.7604V58.9384H85.5406C84.4246 58.9384 83.5666 58.6684 82.9666 58.1284C82.3786 57.5884 82.0846 56.6884 82.0846 55.4284V51.1084H80.6986V48.9664H82.0846V46.5004H84.6226V48.9664H86.8546V51.1084H84.6226V55.4644C84.6226 55.9444 84.7186 56.2804 84.9106 56.4724C85.1026 56.6644 85.4266 56.7604 85.8826 56.7604H86.8726ZM88.4109 46.1044C88.4109 45.6964 88.5549 45.3664 88.8429 45.1144C89.1309 44.8504 89.5089 44.7184 89.9769 44.7184C90.4449 44.7184 90.8229 44.8504 91.1109 45.1144C91.3989 45.3664 91.5429 45.6964 91.5429 46.1044C91.5429 46.5004 91.3989 46.8304 91.1109 47.0944C90.8229 47.3464 90.4449 47.4724 89.9769 47.4724C89.5089 47.4724 89.1309 47.3464 88.8429 47.0944C88.5549 46.8304 88.4109 46.5004 88.4109 46.1044ZM91.2369 48.9664V58.9384H88.6989V48.9664H91.2369ZM99.4729 48.8224C100.625 48.8224 101.543 49.2004 102.227 49.9564C102.911 50.7124 103.253 51.7744 103.253 53.1424V58.9384H100.733V53.4304C100.733 52.6384 100.529 52.0264 100.121 51.5944C99.7129 51.1504 99.1549 50.9284 98.4469 50.9284C97.7269 50.9284 97.1509 51.1624 96.7189 51.6304C96.2869 52.0984 96.0709 52.7704 96.0709 53.6464V58.9384H93.5329V48.9664H96.0709V50.9644C96.3349 50.2924 96.7669 49.7704 97.3669 49.3984C97.9789 49.0144 98.6809 48.8224 99.4729 48.8224ZM109.392 48.8404C110.232 48.8404 110.952 49.0384 111.552 49.4344C112.152 49.8304 112.578 50.3644 112.83 51.0364V48.9664H115.35V58.9744C115.35 59.8984 115.164 60.7264 114.792 61.4584C114.432 62.2024 113.886 62.7844 113.154 63.2044C112.434 63.6244 111.558 63.8344 110.526 63.8344C109.086 63.8344 107.922 63.4924 107.034 62.8084C106.146 62.1244 105.606 61.1944 105.414 60.0184H107.916C108.06 60.5224 108.336 60.9124 108.744 61.1884C109.164 61.4764 109.698 61.6204 110.346 61.6204C111.09 61.6204 111.69 61.3984 112.146 60.9544C112.602 60.5224 112.83 59.8624 112.83 58.9744V56.8504C112.578 57.5224 112.152 58.0624 111.552 58.4704C110.952 58.8664 110.232 59.0644 109.392 59.0644C108.552 59.0644 107.796 58.8604 107.124 58.4524C106.452 58.0444 105.924 57.4564 105.54 56.6884C105.168 55.9084 104.982 54.9964 104.982 53.9524C104.982 52.9084 105.168 52.0024 105.54 51.2344C105.924 50.4544 106.452 49.8604 107.124 49.4524C107.796 49.0444 108.552 48.8404 109.392 48.8404ZM110.184 51.0544C109.392 51.0544 108.756 51.3124 108.276 51.8284C107.796 52.3444 107.556 53.0524 107.556 53.9524C107.556 54.8524 107.796 55.5604 108.276 56.0764C108.756 56.5804 109.392 56.8324 110.184 56.8324C110.952 56.8324 111.582 56.5744 112.074 56.0584C112.578 55.5304 112.83 54.8284 112.83 53.9524C112.83 53.0644 112.578 52.3624 112.074 51.8464C111.582 51.3184 110.952 51.0544 110.184 51.0544Z" fill="#2F2F2F"/>
<path d="M11.624 76.9844C12.524 76.9844 13.316 77.1884 14 77.5964C14.696 77.9924 15.236 78.5744 15.62 79.3424C16.016 80.0984 16.214 80.9924 16.214 82.0244C16.214 83.0444 16.016 83.9384 15.62 84.7064C15.236 85.4624 14.696 86.0444 14 86.4524C13.304 86.8604 12.512 87.0644 11.624 87.0644C10.616 87.0644 9.764 86.8064 9.068 86.2904C8.372 85.7744 7.892 85.0904 7.628 84.2384V86.9384H6.368V73.6184H7.628V79.8104C7.892 78.9584 8.372 78.2744 9.068 77.7584C9.764 77.2424 10.616 76.9844 11.624 76.9844ZM11.282 78.1004C10.586 78.1004 9.956 78.2624 9.392 78.5864C8.84 78.9104 8.408 79.3724 8.096 79.9724C7.784 80.5604 7.628 81.2444 7.628 82.0244C7.628 82.8044 7.784 83.4944 8.096 84.0944C8.408 84.6824 8.84 85.1384 9.392 85.4624C9.956 85.7864 10.586 85.9484 11.282 85.9484C12.398 85.9484 13.286 85.6004 13.946 84.9044C14.606 84.1964 14.936 83.2364 14.936 82.0244C14.936 80.8124 14.606 79.8584 13.946 79.1624C13.286 78.4544 12.398 78.1004 11.282 78.1004ZM22.6193 76.9844C23.6153 76.9844 24.4613 77.2424 25.1573 77.7584C25.8653 78.2744 26.3513 78.9584 26.6153 79.8104V77.1104H27.8573V86.9384H26.6153V84.2384C26.3513 85.0904 25.8653 85.7744 25.1573 86.2904C24.4613 86.8064 23.6153 87.0644 22.6193 87.0644C21.7313 87.0644 20.9333 86.8604 20.2253 86.4524C19.5293 86.0444 18.9833 85.4624 18.5873 84.7064C18.2033 83.9384 18.0113 83.0444 18.0113 82.0244C18.0113 80.9924 18.2033 80.0984 18.5873 79.3424C18.9833 78.5744 19.5293 77.9924 20.2253 77.5964C20.9213 77.1884 21.7193 76.9844 22.6193 76.9844ZM22.9433 78.1004C21.8393 78.1004 20.9513 78.4544 20.2793 79.1624C19.6193 79.8584 19.2893 80.8124 19.2893 82.0244C19.2893 83.2364 19.6193 84.1964 20.2793 84.9044C20.9513 85.6004 21.8393 85.9484 22.9433 85.9484C23.6393 85.9484 24.2633 85.7864 24.8153 85.4624C25.3793 85.1384 25.8173 84.6824 26.1293 84.0944C26.4533 83.4944 26.6153 82.8044 26.6153 82.0244C26.6153 81.2444 26.4533 80.5604 26.1293 79.9724C25.8173 79.3724 25.3793 78.9104 24.8153 78.5864C24.2633 78.2624 23.6393 78.1004 22.9433 78.1004ZM33.5607 76.9844C34.6287 76.9844 35.4867 77.2664 36.1347 77.8304C36.7827 78.3944 37.1787 79.1564 37.3227 80.1164H36.1167C36.0447 79.4804 35.7807 78.9584 35.3247 78.5504C34.8807 78.1304 34.2807 77.9204 33.5247 77.9204C32.8767 77.9204 32.3667 78.0824 31.9947 78.4064C31.6347 78.7184 31.4547 79.1384 31.4547 79.6664C31.4547 80.0624 31.5687 80.3804 31.7967 80.6204C32.0367 80.8604 32.3307 81.0464 32.6787 81.1784C33.0267 81.2984 33.4947 81.4244 34.0827 81.5564C34.8027 81.7244 35.3787 81.8984 35.8107 82.0784C36.2547 82.2464 36.6327 82.5164 36.9447 82.8884C37.2567 83.2604 37.4127 83.7644 37.4127 84.4004C37.4127 85.1804 37.1187 85.8224 36.5307 86.3264C35.9547 86.8184 35.1867 87.0644 34.2267 87.0644C33.0987 87.0644 32.1747 86.7884 31.4547 86.2364C30.7347 85.6724 30.3087 84.9044 30.1767 83.9324H31.4007C31.4727 84.5804 31.7547 85.1084 32.2467 85.5164C32.7387 85.9244 33.4047 86.1284 34.2447 86.1284C34.8687 86.1284 35.3547 85.9664 35.7027 85.6424C36.0507 85.3184 36.2247 84.8984 36.2247 84.3824C36.2247 83.9624 36.1047 83.6264 35.8647 83.3744C35.6247 83.1224 35.3247 82.9364 34.9647 82.8164C34.6167 82.6844 34.1367 82.5464 33.5247 82.4024C32.8167 82.2344 32.2467 82.0664 31.8147 81.8984C31.3947 81.7304 31.0347 81.4724 30.7347 81.1244C30.4347 80.7644 30.2847 80.2784 30.2847 79.6664C30.2847 78.8624 30.5787 78.2144 31.1667 77.7224C31.7547 77.2304 32.5527 76.9844 33.5607 76.9844ZM43.9977 86.0204C44.8857 86.0204 45.6297 85.7984 46.2297 85.3544C46.8297 84.9104 47.1897 84.3104 47.3097 83.5544H48.6417C48.4617 84.5984 47.9637 85.4444 47.1477 86.0924C46.3317 86.7404 45.2997 87.0644 44.0517 87.0644C43.1157 87.0644 42.2817 86.8664 41.5497 86.4704C40.8297 86.0624 40.2657 85.4804 39.8577 84.7244C39.4497 83.9564 39.2457 83.0564 39.2457 82.0244C39.2457 80.9924 39.4497 80.0984 39.8577 79.3424C40.2657 78.5744 40.8297 77.9924 41.5497 77.5964C42.2817 77.1884 43.1157 76.9844 44.0517 76.9844C45.0117 76.9844 45.8397 77.1884 46.5357 77.5964C47.2437 77.9924 47.7777 78.5264 48.1377 79.1984C48.5097 79.8704 48.6957 80.6024 48.6957 81.3944C48.6957 81.7304 48.6717 82.0364 48.6237 82.3124H40.4877C40.4997 83.1404 40.6677 83.8364 40.9917 84.4004C41.3277 84.9524 41.7597 85.3604 42.2877 85.6244C42.8157 85.8884 43.3857 86.0204 43.9977 86.0204ZM44.0517 78.0104C43.4157 78.0104 42.8337 78.1424 42.3057 78.4064C41.7777 78.6704 41.3457 79.0784 41.0097 79.6304C40.6857 80.1704 40.5117 80.8484 40.4877 81.6644H47.4357C47.4837 80.8604 47.3517 80.1824 47.0397 79.6304C46.7277 79.0784 46.3077 78.6704 45.7797 78.4064C45.2517 78.1424 44.6757 78.0104 44.0517 78.0104ZM55.1037 76.9844C56.0997 76.9844 56.9457 77.2424 57.6417 77.7584C58.3497 78.2744 58.8297 78.9584 59.0817 79.8104V73.6184H60.3417V86.9384H59.0817V84.2384C58.8297 85.0904 58.3497 85.7744 57.6417 86.2904C56.9457 86.8064 56.0997 87.0644 55.1037 87.0644C54.2157 87.0644 53.4177 86.8604 52.7097 86.4524C52.0137 86.0444 51.4677 85.4624 51.0717 84.7064C50.6877 83.9384 50.4957 83.0444 50.4957 82.0244C50.4957 80.9924 50.6877 80.0984 51.0717 79.3424C51.4677 78.5744 52.0137 77.9924 52.7097 77.5964C53.4057 77.1884 54.2037 76.9844 55.1037 76.9844ZM55.4277 78.1004C54.3237 78.1004 53.4357 78.4544 52.7637 79.1624C52.1037 79.8584 51.7737 80.8124 51.7737 82.0244C51.7737 83.2364 52.1037 84.1964 52.7637 84.9044C53.4357 85.6004 54.3237 85.9484 55.4277 85.9484C56.1237 85.9484 56.7477 85.7864 57.2997 85.4624C57.8637 85.1384 58.3017 84.6824 58.6137 84.0944C58.9377 83.4944 59.0997 82.8044 59.0997 82.0244C59.0997 81.2444 58.9377 80.5604 58.6137 79.9724C58.3017 79.3724 57.8637 78.9104 57.2997 78.5864C56.7477 78.2624 56.1237 78.1004 55.4277 78.1004ZM72.1968 76.9844C73.1328 76.9844 73.9668 77.1884 74.6988 77.5964C75.4428 77.9924 76.0248 78.5744 76.4448 79.3424C76.8648 80.0984 77.0748 80.9924 77.0748 82.0244C77.0748 83.0564 76.8648 83.9504 76.4448 84.7064C76.0248 85.4624 75.4428 86.0444 74.6988 86.4524C73.9668 86.8604 73.1328 87.0644 72.1968 87.0644C71.2608 87.0644 70.4208 86.8604 69.6768 86.4524C68.9328 86.0444 68.3448 85.4624 67.9128 84.7064C67.4928 83.9384 67.2828 83.0444 67.2828 82.0244C67.2828 80.9924 67.4928 80.0984 67.9128 79.3424C68.3448 78.5744 68.9328 77.9924 69.6768 77.5964C70.4208 77.1884 71.2608 76.9844 72.1968 76.9844ZM72.1968 78.0824C71.5488 78.0824 70.9488 78.2264 70.3968 78.5144C69.8448 78.8024 69.4008 79.2464 69.0648 79.8464C68.7288 80.4344 68.5608 81.1604 68.5608 82.0244C68.5608 82.8884 68.7288 83.6144 69.0648 84.2024C69.4008 84.7904 69.8448 85.2284 70.3968 85.5164C70.9488 85.8044 71.5488 85.9484 72.1968 85.9484C72.8328 85.9484 73.4208 85.8044 73.9608 85.5164C74.5128 85.2284 74.9568 84.7904 75.2928 84.2024C75.6288 83.6144 75.7968 82.8884 75.7968 82.0244C75.7968 81.1604 75.6288 80.4344 75.2928 79.8464C74.9568 79.2464 74.5128 78.8024 73.9608 78.5144C73.4208 78.2264 72.8328 78.0824 72.1968 78.0824ZM84.2488 76.9304C85.3888 76.9304 86.3128 77.2964 87.0208 78.0284C87.7408 78.7484 88.1008 79.8104 88.1008 81.2144V86.9384H86.8588V81.3044C86.8588 80.2364 86.5888 79.4204 86.0488 78.8564C85.5088 78.2804 84.7708 77.9924 83.8348 77.9924C82.8508 77.9924 82.0648 78.3104 81.4768 78.9464C80.9008 79.5704 80.6128 80.4944 80.6128 81.7184V86.9384H79.3348V77.1104H80.6128V79.5224C80.8648 78.6824 81.3208 78.0404 81.9808 77.5964C82.6408 77.1524 83.3968 76.9304 84.2488 76.9304ZM94.3204 75.4184V74.2484H97.5424V86.9384H96.2284V75.4184H94.3204ZM107.398 75.1844L102.52 86.9384H101.188L106.12 75.3104H99.1363V74.2124H107.398V75.1844ZM109.286 77.2724C109.286 76.6364 109.454 76.0664 109.79 75.5624C110.126 75.0584 110.618 74.6624 111.266 74.3744C111.914 74.0864 112.682 73.9424 113.57 73.9424C114.47 73.9424 115.238 74.0864 115.874 74.3744C116.522 74.6624 117.014 75.0584 117.35 75.5624C117.686 76.0664 117.854 76.6364 117.854 77.2724C117.854 77.9924 117.65 78.6164 117.242 79.1444C116.846 79.6604 116.234 80.0264 115.406 80.2424C116.282 80.4464 116.966 80.8364 117.458 81.4124C117.95 81.9764 118.196 82.6844 118.196 83.5364C118.196 84.7124 117.776 85.6424 116.936 86.3264C116.108 86.9984 114.986 87.3344 113.57 87.3344C112.166 87.3344 111.044 86.9984 110.204 86.3264C109.364 85.6424 108.944 84.7124 108.944 83.5364C108.944 82.6844 109.19 81.9764 109.682 81.4124C110.174 80.8364 110.858 80.4464 111.734 80.2424C110.906 80.0264 110.288 79.6604 109.88 79.1444C109.484 78.6164 109.286 77.9924 109.286 77.2724ZM110.546 77.4344C110.546 78.2144 110.816 78.8204 111.356 79.2524C111.896 79.6724 112.634 79.8824 113.57 79.8824C114.506 79.8824 115.244 79.6724 115.784 79.2524C116.324 78.8204 116.594 78.2144 116.594 77.4344C116.594 76.6544 116.318 76.0544 115.766 75.6344C115.226 75.2024 114.494 74.9864 113.57 74.9864C112.658 74.9864 111.926 75.2024 111.374 75.6344C110.822 76.0544 110.546 76.6544 110.546 77.4344ZM110.186 83.4824C110.186 84.3584 110.492 85.0424 111.104 85.5344C111.716 86.0264 112.538 86.2724 113.57 86.2724C114.602 86.2724 115.424 86.0264 116.036 85.5344C116.648 85.0424 116.954 84.3584 116.954 83.4824C116.954 82.5824 116.636 81.9104 116 81.4664C115.364 81.0104 114.554 80.7824 113.57 80.7824C112.586 80.7824 111.776 81.0104 111.14 81.4664C110.504 81.9104 110.186 82.5824 110.186 83.4824ZM120.448 77.2724C120.448 76.6364 120.616 76.0664 120.952 75.5624C121.288 75.0584 121.78 74.6624 122.428 74.3744C123.076 74.0864 123.844 73.9424 124.732 73.9424C125.632 73.9424 126.4 74.0864 127.036 74.3744C127.684 74.6624 128.176 75.0584 128.512 75.5624C128.848 76.0664 129.016 76.6364 129.016 77.2724C129.016 77.9924 128.812 78.6164 128.404 79.1444C128.008 79.6604 127.396 80.0264 126.568 80.2424C127.444 80.4464 128.128 80.8364 128.62 81.4124C129.112 81.9764 129.358 82.6844 129.358 83.5364C129.358 84.7124 128.938 85.6424 128.098 86.3264C127.27 86.9984 126.148 87.3344 124.732 87.3344C123.328 87.3344 122.206 86.9984 121.366 86.3264C120.526 85.6424 120.106 84.7124 120.106 83.5364C120.106 82.6844 120.352 81.9764 120.844 81.4124C121.336 80.8364 122.02 80.4464 122.896 80.2424C122.068 80.0264 121.45 79.6604 121.042 79.1444C120.646 78.6164 120.448 77.9924 120.448 77.2724ZM121.708 77.4344C121.708 78.2144 121.978 78.8204 122.518 79.2524C123.058 79.6724 123.796 79.8824 124.732 79.8824C125.668 79.8824 126.406 79.6724 126.946 79.2524C127.486 78.8204 127.756 78.2144 127.756 77.4344C127.756 76.6544 127.48 76.0544 126.928 75.6344C126.388 75.2024 125.656 74.9864 124.732 74.9864C123.82 74.9864 123.088 75.2024 122.536 75.6344C121.984 76.0544 121.708 76.6544 121.708 77.4344ZM121.348 83.4824C121.348 84.3584 121.654 85.0424 122.266 85.5344C122.878 86.0264 123.7 86.2724 124.732 86.2724C125.764 86.2724 126.586 86.0264 127.198 85.5344C127.81 85.0424 128.116 84.3584 128.116 83.4824C128.116 82.5824 127.798 81.9104 127.162 81.4664C126.526 81.0104 125.716 80.7824 124.732 80.7824C123.748 80.7824 122.938 81.0104 122.302 81.4664C121.666 81.9104 121.348 82.5824 121.348 83.4824ZM137.636 79.1444C137.924 78.4364 138.386 77.8904 139.022 77.5064C139.658 77.1224 140.432 76.9304 141.344 76.9304V78.2984H140.93C139.982 78.2984 139.196 78.5564 138.572 79.0724C137.948 79.5764 137.636 80.4044 137.636 81.5564V86.9384H136.358V77.1104H137.636V79.1444ZM147.304 86.0204C148.192 86.0204 148.936 85.7984 149.536 85.3544C150.136 84.9104 150.496 84.3104 150.616 83.5544H151.948C151.768 84.5984 151.27 85.4444 150.454 86.0924C149.638 86.7404 148.606 87.0644 147.358 87.0644C146.422 87.0644 145.588 86.8664 144.856 86.4704C144.136 86.0624 143.572 85.4804 143.164 84.7244C142.756 83.9564 142.552 83.0564 142.552 82.0244C142.552 80.9924 142.756 80.0984 143.164 79.3424C143.572 78.5744 144.136 77.9924 144.856 77.5964C145.588 77.1884 146.422 76.9844 147.358 76.9844C148.318 76.9844 149.146 77.1884 149.842 77.5964C150.55 77.9924 151.084 78.5264 151.444 79.1984C151.816 79.8704 152.002 80.6024 152.002 81.3944C152.002 81.7304 151.978 82.0364 151.93 82.3124H143.794C143.806 83.1404 143.974 83.8364 144.298 84.4004C144.634 84.9524 145.066 85.3604 145.594 85.6244C146.122 85.8884 146.692 86.0204 147.304 86.0204ZM147.358 78.0104C146.722 78.0104 146.14 78.1424 145.612 78.4064C145.084 78.6704 144.652 79.0784 144.316 79.6304C143.992 80.1704 143.818 80.8484 143.794 81.6644H150.742C150.79 80.8604 150.658 80.1824 150.346 79.6304C150.034 79.0784 149.614 78.6704 149.086 78.4064C148.558 78.1424 147.982 78.0104 147.358 78.0104ZM157.906 85.5164L161.2 77.1104H162.568L158.608 86.9384H157.168L153.208 77.1104H154.576L157.906 85.5164ZM163.949 74.1944C163.949 73.9304 164.033 73.7204 164.201 73.5644C164.381 73.4084 164.609 73.3304 164.885 73.3304C165.161 73.3304 165.383 73.4084 165.551 73.5644C165.719 73.7204 165.803 73.9304 165.803 74.1944C165.803 74.4464 165.719 74.6504 165.551 74.8064C165.383 74.9624 165.161 75.0404 164.885 75.0404C164.609 75.0404 164.381 74.9624 164.201 74.8064C164.033 74.6504 163.949 74.4464 163.949 74.1944ZM165.515 77.1104V86.9384H164.237V77.1104H165.515ZM172.529 86.0204C173.417 86.0204 174.161 85.7984 174.761 85.3544C175.361 84.9104 175.721 84.3104 175.841 83.5544H177.173C176.993 84.5984 176.495 85.4444 175.679 86.0924C174.863 86.7404 173.831 87.0644 172.583 87.0644C171.647 87.0644 170.813 86.8664 170.081 86.4704C169.361 86.0624 168.797 85.4804 168.389 84.7244C167.981 83.9564 167.777 83.0564 167.777 82.0244C167.777 80.9924 167.981 80.0984 168.389 79.3424C168.797 78.5744 169.361 77.9924 170.081 77.5964C170.813 77.1884 171.647 76.9844 172.583 76.9844C173.543 76.9844 174.371 77.1884 175.067 77.5964C175.775 77.9924 176.309 78.5264 176.669 79.1984C177.041 79.8704 177.227 80.6024 177.227 81.3944C177.227 81.7304 177.203 82.0364 177.155 82.3124H169.019C169.031 83.1404 169.199 83.8364 169.523 84.4004C169.859 84.9524 170.291 85.3604 170.819 85.6244C171.347 85.8884 171.917 86.0204 172.529 86.0204ZM172.583 78.0104C171.947 78.0104 171.365 78.1424 170.837 78.4064C170.309 78.6704 169.877 79.0784 169.541 79.6304C169.217 80.1704 169.043 80.8484 169.019 81.6644H175.967C176.015 80.8604 175.883 80.1824 175.571 79.6304C175.259 79.0784 174.839 78.6704 174.311 78.4064C173.783 78.1424 173.207 78.0104 172.583 78.0104ZM192.779 77.1104L189.881 86.9384H188.549L185.597 78.5864L182.609 86.9384H181.295L178.397 77.1104H179.675L182.015 85.6244L184.967 77.1104H186.263L189.233 85.6244L191.555 77.1104H192.779ZM197.371 76.9844C198.439 76.9844 199.297 77.2664 199.945 77.8304C200.593 78.3944 200.989 79.1564 201.133 80.1164H199.927C199.855 79.4804 199.591 78.9584 199.135 78.5504C198.691 78.1304 198.091 77.9204 197.335 77.9204C196.687 77.9204 196.177 78.0824 195.805 78.4064C195.445 78.7184 195.265 79.1384 195.265 79.6664C195.265 80.0624 195.379 80.3804 195.607 80.6204C195.847 80.8604 196.141 81.0464 196.489 81.1784C196.837 81.2984 197.305 81.4244 197.893 81.5564C198.613 81.7244 199.189 81.8984 199.621 82.0784C200.065 82.2464 200.443 82.5164 200.755 82.8884C201.067 83.2604 201.223 83.7644 201.223 84.4004C201.223 85.1804 200.929 85.8224 200.341 86.3264C199.765 86.8184 198.997 87.0644 198.037 87.0644C196.909 87.0644 195.985 86.7884 195.265 86.2364C194.545 85.6724 194.119 84.9044 193.987 83.9324H195.211C195.283 84.5804 195.565 85.1084 196.057 85.5164C196.549 85.9244 197.215 86.1284 198.055 86.1284C198.679 86.1284 199.165 85.9664 199.513 85.6424C199.861 85.3184 200.035 84.8984 200.035 84.3824C200.035 83.9624 199.915 83.6264 199.675 83.3744C199.435 83.1224 199.135 82.9364 198.775 82.8164C198.427 82.6844 197.947 82.5464 197.335 82.4024C196.627 82.2344 196.057 82.0664 195.625 81.8984C195.205 81.7304 194.845 81.4724 194.545 81.1244C194.245 80.7644 194.095 80.2784 194.095 79.6664C194.095 78.8624 194.389 78.2144 194.977 77.7224C195.565 77.2304 196.363 76.9844 197.371 76.9844Z" fill="#909090"/>
</svg>
